%
M48
M72
T01C0.0120
T02C0.0240
T03C0.0320
T04C0.0400
T05C0.0787
%
T01
X7875Y2068
X8375Y1568
X8875Y2130
X9750Y1505
X10563Y1755
X11563Y1880
X13188Y2192
X14813Y2255
X14813Y1630
X15688Y943
X16125Y1255
X16438Y1943
X17813Y1568
X18500Y2255
X20125Y1568
X20563Y1943
X21500Y2193
X17563Y4443
X17938Y4630
X18375Y4755
X17563Y4943
X17188Y4943
X17188Y4443
X16375Y4443
X16000Y4443
X16000Y4943
X16375Y4943
X15188Y4943
X14813Y4943
X14438Y4943
X14000Y4943
X14000Y4443
X14438Y4443
X14813Y4443
X15188Y4443
X13250Y4443
X12813Y4443
X12438Y4443
X12063Y4443
X12063Y4943
X12438Y4943
X12813Y4943
X13250Y4943
X11250Y4943
X10875Y4943
X10500Y4943
X10063Y4943
X9688Y4693
X10063Y4443
X10500Y4443
X10875Y4443
X11250Y4443
X9250Y4443
X8875Y4693
X9250Y4943
X9250Y3193
X8438Y3068
X5188Y7818
X4125Y7818
X10000Y8068
X16000Y7818
X18688Y9255
X19188Y6255
T02
X15563Y6505
X13625Y4693
T03
X23063Y2130
X23063Y1130
T04
X22813Y3193
X22813Y4193
X22813Y5193
X22813Y6193
X23125Y8755
X22125Y8755
X21125Y8755
X20125Y8755
X19125Y8755
X18125Y8755
X17125Y8755
X16125Y8755
X15125Y8755
X14125Y8755
X13125Y8755
X12125Y8755
X11125Y8755
X10125Y8755
X9125Y8755
X8125Y8755
X7125Y8755
X6125Y8755
X5125Y8755
X4125Y8755
X4125Y9755
X5125Y9755
X6125Y9755
X7125Y9755
X8125Y9755
X9125Y9755
X10125Y9755
X11125Y9755
X12125Y9755
X13125Y9755
X14125Y9755
X15125Y9755
X16125Y9755
X17125Y9755
X18125Y9755
X19125Y9755
X20125Y9755
X21125Y9755
X22125Y9755
X23125Y9755
X4500Y5193
X4500Y4193
T05
X7050Y4692
X20200Y4692
M30
